<?xml version="1.0" encoding="iso-8859-1"?>
<!-- Generator: Adobe Illustrator 21.0.0, SVG Export Plug-In . SVG Version: 6.00 Build 0)  -->
<svg version="1.1" id="Capa_1" xmlns="http://www.w3.org/2000/svg" xmlns:xlink="http://www.w3.org/1999/xlink" x="0px" y="0px"
	 viewBox="0 0 512.158 512.158" style="enable-background:new 0 0 512.158 512.158;" xml:space="preserve">
<g>
	<g>
		<g>
			<path d="M460.875,256.529V25.6c0-14.138-11.462-25.6-25.6-25.6h-409.6c-14.138,0-25.6,11.461-25.6,25.6v290.133
				c0,14.138,11.461,25.6,25.6,25.6h198.665c-12.508,69.236,26.483,137.463,92.485,161.83s139.974-2.153,175.458-62.906
				C527.766,379.504,514.524,302.046,460.875,256.529z M25.674,324.267c-4.713,0-8.533-3.82-8.533-8.533V25.6
				c0-4.713,3.82-8.533,8.533-8.533h409.6c4.713,0,8.533,3.82,8.533,8.533v218.453c-38.15-23.996-85.302-28.847-127.539-13.122
				c-42.237,15.726-74.735,50.232-87.902,93.335H25.674z M367.008,494.933c-70.692,0-128-57.308-128-128s57.308-128,128-128
				c70.659,0.08,127.92,57.341,128,128C495.008,437.626,437.7,494.933,367.008,494.933z"/>
			<path d="M384.074,358.4h-8.533v-34.133c0-4.713-3.82-8.533-8.533-8.533s-8.533,3.82-8.533,8.533v42.667
				c0,4.713,3.82,8.533,8.533,8.533h17.067c4.713,0,8.533-3.82,8.533-8.533S388.787,358.4,384.074,358.4z"/>
			<path d="M463.196,311.799c-0.051-0.111-0.051-0.23-0.111-0.341c-0.06-0.111-0.205-0.188-0.282-0.307
				c-9.58-16.637-23.391-30.445-40.03-40.021c-0.111-0.077-0.179-0.196-0.299-0.265c-0.119-0.068-0.222-0.06-0.324-0.111
				c-34.127-19.673-76.15-19.673-110.276,0c-0.111,0.051-0.23,0.051-0.333,0.111c-0.102,0.06-0.188,0.188-0.307,0.265
				c-16.639,9.574-30.447,23.382-40.021,40.021c-0.077,0.12-0.205,0.188-0.282,0.316c-0.077,0.128-0.06,0.23-0.111,0.341
				c-19.661,34.121-19.661,76.13,0,110.251c0.051,0.111,0.051,0.23,0.111,0.341c0.06,0.111,0.282,0.333,0.401,0.521
				c9.575,16.547,23.34,30.28,39.91,39.817c0.111,0.077,0.179,0.196,0.299,0.265c0.119,0.068,0.307,0.111,0.452,0.188
				c34.064,19.564,75.956,19.564,110.02,0c0.154-0.077,0.316-0.111,0.461-0.196c0.145-0.085,0.188-0.188,0.307-0.265
				c16.57-9.533,30.333-23.267,39.902-39.817c0.128-0.188,0.29-0.324,0.401-0.521c0.111-0.196,0.06-0.23,0.111-0.341
				C482.857,387.93,482.857,345.92,463.196,311.799z M452.341,375.467h8.115c-0.967,10.663-3.767,21.078-8.277,30.788l-7.006-4.045
				c-2.642-1.549-5.911-1.563-8.566-0.038c-2.655,1.525-4.29,4.356-4.283,7.418c0.007,3.062,1.654,5.886,4.316,7.399l6.997,4.036
				c-3.062,4.374-6.488,8.481-10.24,12.279c-3.799,3.763-7.913,7.195-12.297,10.257l-4.036-6.997
				c-1.513-2.662-4.337-4.309-7.399-4.316c-3.062-0.007-5.893,1.628-7.418,4.283c-1.525,2.655-1.511,5.924,0.038,8.566l4.045,7.006
				c-9.71,4.51-20.126,7.311-30.788,8.277v-8.115c0-4.713-3.82-8.533-8.533-8.533s-8.533,3.821-8.533,8.533v8.115
				c-10.663-0.967-21.078-3.767-30.788-8.277l4.045-7.006c1.549-2.642,1.563-5.911,0.038-8.566c-1.525-2.655-4.356-4.29-7.418-4.283
				c-3.062,0.007-5.886,1.654-7.399,4.316l-4.036,6.997c-8.795-6.11-16.427-13.742-22.536-22.536l6.997-4.036
				c4.047-2.372,5.42-7.566,3.074-11.628c-2.345-4.062-7.53-5.47-11.608-3.151l-7.006,4.036c-4.511-9.707-7.311-20.12-8.277-30.78
				h8.115c4.713,0,8.533-3.82,8.533-8.533s-3.82-8.533-8.533-8.533h-8.115c0.967-10.663,3.767-21.078,8.277-30.788l7.006,4.045
				c2.642,1.549,5.911,1.563,8.566,0.038c2.655-1.525,4.29-4.356,4.283-7.418c-0.007-3.062-1.654-5.886-4.316-7.399l-6.997-4.036
				c3.062-4.374,6.488-8.481,10.24-12.279c3.794-3.756,7.903-7.182,12.279-10.24l4.036,6.997c2.372,4.047,7.566,5.42,11.628,3.074
				c4.062-2.345,5.47-7.53,3.151-11.608l-4.045-7.006c9.714-4.518,20.136-7.324,30.805-8.294v8.115c0,4.713,3.82,8.533,8.533,8.533
				s8.533-3.82,8.533-8.533v-8.115c10.663,0.967,21.078,3.767,30.788,8.277l-4.045,7.006c-1.549,2.642-1.563,5.911-0.038,8.566
				c1.525,2.655,4.356,4.29,7.418,4.283c3.062-0.007,5.886-1.654,7.399-4.316l4.036-6.997c8.795,6.11,16.427,13.742,22.536,22.536
				l-6.997,4.036c-2.662,1.513-4.309,4.337-4.316,7.399c-0.007,3.062,1.628,5.893,4.283,7.418c2.655,1.525,5.924,1.511,8.566-0.038
				l7.006-4.036c4.511,9.707,7.311,20.12,8.277,30.78h-8.115c-4.713,0-8.533,3.82-8.533,8.533S447.628,375.467,452.341,375.467z"/>
			<path d="M59.808,221.867c1.935-0.001,3.813-0.66,5.325-1.869l80.008-64l37.333,29.867c3.144,2.515,7.619,2.49,10.735-0.06
				l88.525-72.431l37.274,29.824c3.396,2.717,8.292,2.445,11.366-0.631l62.234-62.234v13.534c0,4.713,3.821,8.533,8.533,8.533
				s8.533-3.821,8.533-8.533V59.733c-0.019-1.02-0.222-2.029-0.597-2.978c-0.114-0.277-0.242-0.547-0.384-0.811
				c-0.324-0.64-0.728-1.237-1.203-1.775c-0.183-0.231-0.379-0.45-0.589-0.657c-0.663-0.626-1.424-1.139-2.253-1.519
				c-0.077,0-0.136-0.094-0.213-0.128c-0.942-0.367-1.942-0.566-2.953-0.589c-0.137-0.017-0.23-0.077-0.341-0.077h-34.133
				c-4.713,0-8.533,3.82-8.533,8.533s3.82,8.533,8.533,8.533h13.534l-56.832,56.832l-36.693-29.363
				c-3.144-2.515-7.619-2.49-10.735,0.06l-88.533,72.431l-37.274-29.824c-3.118-2.496-7.549-2.496-10.667,0l-85.333,68.267
				c-2.831,2.264-3.923,6.07-2.723,9.49C52.952,219.58,56.183,221.868,59.808,221.867z"/>
			<path d="M59.808,247.467c-4.713,0-8.533,3.82-8.533,8.533v25.6c0,4.713,3.82,8.533,8.533,8.533s8.533-3.82,8.533-8.533V256
				C68.341,251.287,64.521,247.467,59.808,247.467z"/>
			<path d="M102.475,221.867c-4.713,0-8.533,3.82-8.533,8.533v51.2c0,4.713,3.82,8.533,8.533,8.533s8.533-3.82,8.533-8.533v-51.2
				C111.008,225.687,107.187,221.867,102.475,221.867z"/>
			<path d="M145.141,196.267c-4.713,0-8.533,3.82-8.533,8.533v76.8c0,4.713,3.82,8.533,8.533,8.533s8.533-3.82,8.533-8.533v-76.8
				C153.675,200.087,149.854,196.267,145.141,196.267z"/>
			<path d="M187.808,213.333c-4.713,0-8.533,3.82-8.533,8.533V281.6c0,4.713,3.82,8.533,8.533,8.533s8.533-3.82,8.533-8.533v-59.733
				C196.341,217.154,192.521,213.333,187.808,213.333z"/>
			<path d="M230.475,187.733c-4.713,0-8.533,3.82-8.533,8.533v68.267c0,4.713,3.82,8.533,8.533,8.533s8.533-3.82,8.533-8.533
				v-68.267C239.008,191.554,235.187,187.733,230.475,187.733z"/>
			<path d="M273.141,145.067c-4.713,0-8.533,3.821-8.533,8.533v68.267c0,4.713,3.821,8.533,8.533,8.533
				c4.713,0,8.533-3.82,8.533-8.533V153.6C281.675,148.887,277.854,145.067,273.141,145.067z"/>
			<path d="M315.808,162.133c-4.713,0-8.533,3.82-8.533,8.533V204.8c0,4.713,3.82,8.533,8.533,8.533s8.533-3.821,8.533-8.533
				v-34.133C324.341,165.954,320.521,162.133,315.808,162.133z"/>
			<path d="M358.475,136.533c-4.713,0-8.533,3.82-8.533,8.533v51.2c0,4.713,3.82,8.533,8.533,8.533s8.533-3.82,8.533-8.533v-51.2
				C367.008,140.354,363.187,136.533,358.475,136.533z"/>
			<path d="M401.141,119.467c-4.713,0-8.533,3.82-8.533,8.533v68.267c0,4.713,3.821,8.533,8.533,8.533s8.533-3.82,8.533-8.533V128
				C409.675,123.287,405.854,119.467,401.141,119.467z"/>
		</g>
	</g>
</g>
<g>
</g>
<g>
</g>
<g>
</g>
<g>
</g>
<g>
</g>
<g>
</g>
<g>
</g>
<g>
</g>
<g>
</g>
<g>
</g>
<g>
</g>
<g>
</g>
<g>
</g>
<g>
</g>
<g>
</g>
</svg>
