<svg height="512pt" viewBox="-83 0 512 512" width="512pt" xmlns="http://www.w3.org/2000/svg"><path d="m187.5 256h-30v75l15 20 15-20zm0 0" fill="#a3bbc0"/><path d="m157.5 331v143.5l15 30 15-30v-143.5zm0 0" fill="#bddbe0"/><path d="m247.5 173.691406-16.652344-151.191406h-30l-28.347656 248.5 135 30h30c0-58.777344-37.570312-108.773438-90-127.308594zm0 0" fill="#ff1b10"/><path d="m217.5 173.691406-16.652344-151.191406h-86.695312l-16.652344 151.191406c-52.429688 18.535156-90 68.53125-90 127.308594h300c0-58.777344-37.570312-108.773438-90-127.308594zm0 0" fill="#ff451b"/><path d="m277.5 7.5h-30v30h30c8.285156 0 15-6.714844 15-15s-6.714844-15-15-15zm0 0" fill="#ff451b"/><path d="m262.5 22.5c0-8.285156-6.714844-15-15-15h-180c-8.285156 0-15 6.714844-15 15s6.714844 15 15 15h180c8.285156 0 15-6.714844 15-15zm0 0" fill="#ff6523"/><path d="m254.449219 168.277344-13.578125-123.277344h36.628906c12.40625 0 22.5-10.09375 22.5-22.5s-10.09375-22.5-22.5-22.5h-210c-12.40625 0-22.5 10.09375-22.5 22.5s10.09375 22.5 22.5 22.5h36.628906l-13.578125 123.277344c-54.359375 21.277344-90.550781 74.019531-90.550781 132.722656 0 4.144531 3.359375 7.5 7.5 7.5h142.5v166c0 1.164062.269531 2.3125.792969 3.355469l15 30c1.269531 2.539062 3.867187 4.144531 6.707031 4.144531s5.4375-1.605469 6.707031-4.144531l15-30c.523438-1.042969.792969-2.191407.792969-3.355469v-166h142.5c4.140625 0 7.5-3.355469 7.5-7.5 0-58.703125-36.191406-111.445312-90.550781-132.722656zm-194.449219-145.777344c0-4.136719 3.363281-7.5 7.5-7.5h210c4.136719 0 7.5 3.363281 7.5 7.5s-3.363281 7.5-7.5 7.5h-210c-4.136719 0-7.5-3.363281-7.5-7.5zm120 450.230469-7.5 15-7.5-15v-164.230469h15zm-164.777344-179.230469c2.996094-50.882812 36.304688-95.601562 84.777344-112.734375 2.714844-.960937 4.640625-3.390625 4.957031-6.25l14.261719-129.515625h106.5625l13.347656 121.191406h-111.628906c-4.140625 0-7.5 3.359375-7.5 7.5 0 4.144532 3.359375 7.5 7.5 7.5h118.644531c47.847657 17.433594 80.660157 61.832032 83.632813 112.308594zm0 0"/></svg>