<svg id="Capa_1" enable-background="new 0 0 512 512" height="512" viewBox="0 0 512 512" width="512" xmlns="http://www.w3.org/2000/svg"><g><path d="m407 0h-302c-57.897 0-105 47.103-105 105v302c0 57.897 47.103 105 105 105h302c57.897 0 105-47.103 105-105v-302c0-57.897-47.103-105-105-105zm75 407c0 41.355-33.645 75-75 75h-302c-41.355 0-75-33.645-75-75v-302c0-41.355 33.645-75 75-75h302c41.355 0 75 33.645 75 75z"/><path d="m171.905 318.882c-13.128-17.529-20.905-39.297-20.905-62.882s7.777-45.353 20.905-62.882l-85.959-85.959c-34.829 39.759-55.946 91.831-55.946 148.841s21.117 109.082 55.946 148.841z"/><path d="m318.882 340.095c-17.529 13.128-39.297 20.905-62.882 20.905s-45.353-7.777-62.882-20.905l-85.959 85.959c39.759 34.829 91.831 55.946 148.841 55.946s109.082-21.117 148.841-55.946z"/><path d="m193.118 171.905c17.529-13.128 39.297-20.905 62.882-20.905s45.353 7.777 62.882 20.905l85.959-85.959c-39.759-34.829-91.831-55.946-148.841-55.946s-109.082 21.117-148.841 55.946z"/><path d="m340.095 193.118c13.128 17.529 20.905 39.297 20.905 62.882s-7.777 45.353-20.905 62.882l85.959 85.959c34.829-39.759 55.946-91.831 55.946-148.841s-21.117-109.082-55.946-148.841z"/></g></svg>