<?xml version="1.0" encoding="iso-8859-1"?>
<!-- Generator: Adobe Illustrator 19.0.0, SVG Export Plug-In . SVG Version: 6.00 Build 0)  -->
<svg xmlns="http://www.w3.org/2000/svg" xmlns:xlink="http://www.w3.org/1999/xlink" version="1.1" id="Layer_1" x="0px" y="0px" viewBox="0 0 512.019 512.019" style="enable-background:new 0 0 512.019 512.019;" xml:space="preserve" width="512" height="512">
<g id="XMLID_778_">
	<path id="XMLID_779_" d="M511.641,227.413c-1.463-7.225-6.855-12.648-14.072-14.154l-38.9-8.113l45.519-31.498   c6.062-4.195,8.918-11.289,7.454-18.514c-1.463-7.225-6.855-12.647-14.071-14.153l-77.218-16.104   c-4.052-0.844-8.027,1.755-8.873,5.811c-0.846,4.055,1.755,8.028,5.811,8.873l77.218,16.105c1.76,0.367,2.279,1.69,2.433,2.447   s0.189,2.178-1.289,3.201l-69.468,48.071l-86.507-51.726c-5.64-3.372-12.678-3.428-18.371-0.143l-149.755,86.412L17.511,211.803   c-1.76-0.367-2.279-1.69-2.433-2.446c-0.153-0.756-0.189-2.177,1.289-3.2L182.066,91.498c0.705-0.487,1.588-0.665,2.424-0.491   l195.835,40.844c4.054,0.849,8.028-1.755,8.873-5.811c0.846-4.055-1.756-8.027-5.811-8.873L187.552,76.323   c-4.843-1.012-9.954,0.024-14.022,2.84L7.832,193.822c-6.062,4.195-8.918,11.289-7.454,18.514   c1.464,7.225,6.856,12.647,14.072,14.152l38.903,8.113l-45.52,31.498c-6.062,4.195-8.918,11.289-7.455,18.514   c1.463,7.225,6.855,12.647,14.072,14.152l38.903,8.113l-45.52,31.498c-6.062,4.194-8.918,11.288-7.455,18.512   c1.463,7.225,6.855,12.648,14.072,14.154l310.021,64.654c1.215,0.253,2.447,0.378,3.675,0.378c3.666,0,7.298-1.11,10.346-3.218   l95.02-65.75c3.406-2.357,4.257-7.029,1.9-10.435c-2.357-3.407-7.029-4.258-10.435-1.9l-95.019,65.75   c-0.703,0.486-1.589,0.667-2.425,0.491L17.512,356.359c-1.76-0.367-2.28-1.691-2.433-2.447c-0.153-0.756-0.189-2.177,1.289-3.2   l57.241-39.609l97.281,20.288c0.517,0.108,1.031,0.16,1.539,0.16c3.477,0,6.596-2.432,7.334-5.97   c0.846-4.055-1.756-8.028-5.811-8.874l-156.44-32.625c-1.76-0.367-2.28-1.69-2.433-2.446c-0.153-0.756-0.189-2.178,1.289-3.201   l57.241-39.609l97.681,20.37c0.836,0.173,1.674,0.204,2.515,0.093l101.042-13.366c0.123,4.047,3.437,7.271,7.489,7.271   c0.034,0,0.068,0,0.102,0c4.142-0.056,7.455-3.458,7.399-7.6l-0.011-0.804c-0.004-0.285-0.027-0.564-0.062-0.841l111.958-14.81   c-0.053,0.377-0.088,0.76-0.083,1.153l0.01,0.804c0.053,4.109,3.4,7.404,7.498,7.404c0.032,0,0.065,0,0.098,0   c4.142-0.053,7.457-3.454,7.404-7.595l-0.01-0.804c-0.013-1.014-0.229-1.977-0.605-2.854l11.429-1.512   c1.18-0.156,2.306-0.59,3.284-1.268l10.905-7.546l52.853,11.022c1.76,0.367,2.28,1.691,2.434,2.447   c0.153,0.756,0.189,2.177-1.289,3.2L329.957,348.244c-0.703,0.487-1.585,0.665-2.424,0.492l-116.83-24.365   c-4.053-0.846-8.027,1.756-8.874,5.811c-0.845,4.055,1.756,8.028,5.811,8.873l116.831,24.365c1.215,0.253,2.447,0.378,3.675,0.378   c3.667,0,7.299-1.11,10.346-3.219l103.158-71.382l52.856,11.023c1.76,0.367,2.28,1.69,2.433,2.446   c0.153,0.756,0.189,2.178-1.289,3.201l-40.534,28.048c-3.406,2.357-4.257,7.029-1.9,10.435c1.456,2.104,3.795,3.233,6.174,3.233   c1.472,0,2.959-0.432,4.261-1.333l40.534-28.048c6.062-4.195,8.918-11.289,7.455-18.513c-1.463-7.225-6.855-12.648-14.072-14.153   l-38.903-8.113l45.52-31.498C510.247,241.731,513.104,234.637,511.641,227.413z M328.803,170.507   c0.983-0.568,2.201-0.558,3.176,0.025l72.174,43.156l-194.851,25.775L328.803,170.507z"/>
	<path id="XMLID_782_" d="M299.131,290.243c-0.034,0-0.068,0-0.102,0c-4.142,0.056-7.455,3.458-7.399,7.6l0.011,0.804   c0.055,4.108,3.402,7.4,7.498,7.4c0.034,0,0.068,0,0.102,0c4.142-0.056,7.455-3.458,7.399-7.6l-0.011-0.804   C306.573,293.535,303.226,290.243,299.131,290.243z"/>
	<path id="XMLID_783_" d="M299.068,331.403c0.032,0,0.065,0,0.098,0c4.142-0.053,7.457-3.454,7.404-7.595l-0.01-0.804   c-0.053-4.142-3.439-7.496-7.595-7.404c-4.142,0.053-7.457,3.454-7.404,7.595l0.01,0.804   C291.623,328.108,294.97,331.403,299.068,331.403z"/>
	<path id="XMLID_784_" d="M311.497,318.363l0.799-0.01c4.142-0.053,7.457-3.454,7.403-7.596c-0.053-4.142-3.459-7.469-7.596-7.403   l-0.799,0.01c-4.142,0.053-7.457,3.454-7.403,7.596c0.053,4.109,3.4,7.404,7.498,7.404   C311.432,318.363,311.465,318.363,311.497,318.363z"/>
	<path id="XMLID_785_" d="M286.696,303.284l-0.799,0.011c-4.142,0.056-7.454,3.458-7.398,7.601c0.056,4.107,3.402,7.399,7.498,7.399   c0.034,0,0.069,0,0.103,0l0.799-0.011c4.142-0.056,7.454-3.458,7.398-7.601C294.241,306.541,290.838,303.235,286.696,303.284z"/>
	<path id="XMLID_786_" d="M355.539,256.47c-4.142,0.053-7.457,3.454-7.404,7.595l0.01,0.804c0.053,4.109,3.4,7.404,7.498,7.404   c0.032,0,0.065,0,0.098,0c4.142-0.053,7.457-3.454,7.404-7.595l-0.01-0.804C363.081,259.733,359.686,256.376,355.539,256.47z"/>
	<path id="XMLID_787_" d="M355.469,281.826c-4.142,0.053-7.457,3.454-7.404,7.595l0.01,0.804c0.053,4.109,3.4,7.404,7.498,7.404   c0.032,0,0.065,0,0.098,0c4.142-0.053,7.457-3.454,7.404-7.595l-0.01-0.804C363.011,285.089,359.624,281.781,355.469,281.826z"/>
	<path id="XMLID_788_" d="M368.007,284.589l0.799-0.011c4.142-0.056,7.455-3.458,7.399-7.6c-0.056-4.142-3.487-7.451-7.6-7.399   l-0.799,0.011c-4.142,0.056-7.455,3.458-7.399,7.6c0.055,4.108,3.402,7.399,7.498,7.399   C367.939,284.59,367.973,284.59,368.007,284.589z"/>
	<path id="XMLID_789_" d="M342.408,269.521c-4.142,0.053-7.457,3.454-7.403,7.596c0.053,4.109,3.4,7.404,7.498,7.404   c0.033,0,0.065,0,0.098,0l0.799-0.01c4.142-0.053,7.457-3.454,7.403-7.596c-0.053-4.142-3.43-7.471-7.596-7.403L342.408,269.521z"/>
	<path id="XMLID_790_" d="M401.571,255.648l0.01,0.804c0.053,4.109,3.4,7.404,7.498,7.404c0.032,0,0.065,0,0.098,0   c4.142-0.053,7.457-3.454,7.404-7.595l-0.01-0.804c-0.053-4.142-3.445-7.465-7.595-7.404   C404.833,248.105,401.518,251.506,401.571,255.648z"/>
	<path id="XMLID_791_" d="M421.41,250.816c0.033,0,0.065,0,0.098,0l0.799-0.01c4.142-0.053,7.457-3.454,7.403-7.596   c-0.053-4.142-3.491-7.487-7.596-7.403l-0.799,0.01c-4.142,0.053-7.457,3.454-7.403,7.596   C413.965,247.521,417.312,250.816,421.41,250.816z"/>
	<path id="XMLID_792_" d="M396.712,235.737l-0.799,0.01c-4.142,0.053-7.457,3.454-7.403,7.596c0.053,4.109,3.4,7.404,7.498,7.404   c0.033,0,0.065,0,0.098,0l0.799-0.01c4.142-0.053,7.457-3.454,7.403-7.596C404.255,238.998,400.82,235.66,396.712,235.737z"/>
	<path id="XMLID_793_" d="M225.823,271.164c-0.034,0-0.068,0-0.102,0c-4.142,0.056-7.455,3.458-7.399,7.6l0.011,0.804   c0.055,4.108,3.402,7.4,7.498,7.4c0.034,0,0.068,0,0.102,0c4.142-0.056,7.455-3.458,7.399-7.6l-0.011-0.804   C233.266,274.456,229.919,271.164,225.823,271.164z"/>
	<path id="XMLID_794_" d="M225.657,296.52c-4.142,0.053-7.457,3.453-7.404,7.595l0.01,0.804c0.053,4.109,3.4,7.404,7.498,7.404   c0.032,0,0.065,0,0.098,0c4.142-0.053,7.457-3.453,7.404-7.595l-0.01-0.804C233.199,299.782,229.783,296.486,225.657,296.52z"/>
	<path id="XMLID_795_" d="M238.195,299.283l0.799-0.011c4.142-0.056,7.455-3.458,7.399-7.6s-3.481-7.482-7.6-7.399l-0.799,0.011   c-4.142,0.056-7.455,3.458-7.399,7.6c0.055,4.108,3.402,7.399,7.498,7.399C238.126,299.283,238.161,299.283,238.195,299.283z"/>
	<path id="XMLID_796_" d="M212.595,284.215c-4.142,0.053-7.457,3.454-7.403,7.596c0.053,4.109,3.4,7.404,7.498,7.404   c0.033,0,0.065,0,0.098,0l0.799-0.01c4.142-0.053,7.457-3.454,7.403-7.596c-0.053-4.143-3.447-7.431-7.596-7.403L212.595,284.215z"/>
	<path id="XMLID_797_" d="M274.758,270.342l0.01,0.804c0.053,4.109,3.4,7.404,7.498,7.404c0.032,0,0.065,0,0.098,0   c4.142-0.053,7.457-3.454,7.404-7.595l-0.01-0.804c-0.053-4.142-3.47-7.454-7.595-7.404   C278.021,262.799,274.706,266.2,274.758,270.342z"/>
	<path id="XMLID_798_" d="M295.302,250.5l-0.799,0.01c-4.142,0.053-7.457,3.454-7.403,7.596c0.053,4.109,3.4,7.404,7.498,7.404   c0.033,0,0.065,0,0.098,0l0.799-0.01c4.142-0.053,7.457-3.454,7.403-7.596C302.845,253.761,299.411,250.456,295.302,250.5z"/>
	<path id="XMLID_799_" d="M269.895,250.43l-0.799,0.011c-4.142,0.056-7.454,3.458-7.398,7.601c0.056,4.107,3.402,7.399,7.498,7.399   c0.034,0,0.069,0,0.103,0l0.799-0.011c4.142-0.056,7.454-3.458,7.398-7.601C277.439,253.687,274.026,250.379,269.895,250.43z"/>
	<path id="XMLID_800_" d="M158.523,273.887c0.034,0,0.068,0,0.102,0c4.142-0.056,7.455-3.458,7.399-7.6l-0.011-0.804   c-0.056-4.142-3.416-7.447-7.6-7.399c-4.142,0.056-7.455,3.458-7.399,7.6l0.011,0.804   C151.081,270.595,154.427,273.887,158.523,273.887z"/>
	<path id="XMLID_801_" d="M158.454,299.243c0.032,0,0.065,0,0.098,0c4.142-0.053,7.457-3.454,7.404-7.595l-0.01-0.804   c-0.053-4.109-3.4-7.404-7.498-7.404c-0.032,0-0.065,0-0.098,0c-4.142,0.053-7.457,3.454-7.404,7.595l0.01,0.804   C151.009,295.948,154.356,299.243,158.454,299.243z"/>
	<path id="XMLID_802_" d="M170.883,286.203l0.799-0.01c4.142-0.053,7.457-3.454,7.403-7.596c-0.053-4.142-3.463-7.489-7.596-7.403   l-0.799,0.01c-4.142,0.053-7.457,3.454-7.403,7.596c0.053,4.109,3.4,7.404,7.498,7.404   C170.818,286.203,170.85,286.203,170.883,286.203z"/>
	<path id="XMLID_803_" d="M145.283,271.135c-4.142,0.056-7.455,3.458-7.399,7.6c0.055,4.108,3.402,7.399,7.498,7.399   c0.034,0,0.069,0,0.103,0l0.799-0.011c4.142-0.056,7.455-3.458,7.399-7.6s-3.473-7.44-7.6-7.399L145.283,271.135z"/>
	<path id="XMLID_804_" d="M88.216,263.808c0.034,0,0.068,0,0.102,0c4.142-0.056,7.455-3.458,7.399-7.6l-0.011-0.804   c-0.056-4.142-3.428-7.481-7.6-7.399c-4.142,0.056-7.455,3.458-7.399,7.6l0.011,0.804C80.774,260.516,84.12,263.808,88.216,263.808   z"/>
	<path id="XMLID_805_" d="M88.147,289.164c0.034,0,0.068,0,0.102,0c4.142-0.056,7.455-3.458,7.399-7.6l-0.011-0.804   c-0.056-4.142-3.419-7.462-7.6-7.399c-4.142,0.056-7.455,3.458-7.399,7.6l0.011,0.804   C80.704,285.872,84.051,289.164,88.147,289.164z"/>
	<path id="XMLID_806_" d="M100.58,276.123l0.799-0.011c4.142-0.056,7.455-3.458,7.399-7.6s-3.454-7.483-7.6-7.399l-0.799,0.011   c-4.142,0.056-7.455,3.458-7.399,7.6c0.055,4.108,3.402,7.399,7.498,7.399C100.512,276.124,100.547,276.124,100.58,276.123z"/>
	<path id="XMLID_807_" d="M74.981,261.055c-4.142,0.053-7.457,3.454-7.403,7.596c0.053,4.109,3.4,7.404,7.498,7.404   c0.033,0,0.065,0,0.098,0l0.799-0.01c4.142-0.053,7.457-3.454,7.403-7.596c-0.053-4.142-3.491-7.451-7.596-7.403L74.981,261.055z"/>
</g>















</svg>
