<svg height="512pt" viewBox="0 0 512.00472 512" width="512pt" xmlns="http://www.w3.org/2000/svg"><path d="m494.933594 460.800781h-25.601563v-153.597656c0-9.425781-7.640625-17.066406-17.066406-17.066406h-136.53125v-76.800781h12.800781c6.964844-.003907 13.230469-4.242188 15.828125-10.707032 2.597657-6.464844 1.003907-13.859375-4.027343-18.683594l-2.6875-2.558593-21.914063-20.804688v-92.3125c0-9.425781-7.640625-17.066406-17.066406-17.066406h-42.667969c-9.425781 0-17.066406 7.640625-17.066406 17.066406v19.328125c-21.058594-20.011718-39.160156-37.207031-48.027344-45.609375-6.574219-6.199219-16.839844-6.199219-23.414062 0-23.117188 21.921875-108.886719 103.449219-146.714844 139.40625l-2.6875 2.5625c-5.019532 4.816407-6.613282 12.203125-4.023438 18.660157 2.589844 6.460937 8.839844 10.703124 15.800782 10.71875h12.800781v145.289062c-14.800781 10.894531-20.777344 30.15625-14.746094 47.511719-2.957031 1.675781-5.667969 3.75-8.054687 6.171875-13.101563 12.972656-15.082032 33.445312-4.710938 48.691406-8.597656.96875-15.109375 8.21875-15.15625 16.871094v17.066406c0 9.425781 7.640625 17.066406 17.066406 17.066406h477.867188c9.425781 0 17.066406-7.640625 17.066406-17.066406v-17.066406c0-9.425782-7.640625-17.070313-17.066406-17.070313zm-179.199219-17.066406h102.398437c4.714844 0 8.535157-3.820313 8.535157-8.53125 0-4.714844-3.820313-8.535156-8.535157-8.535156h-102.398437v-17.066407h102.398437c4.714844 0 8.535157-3.820312 8.535157-8.53125 0-4.714843-3.820313-8.535156-8.535157-8.535156h-102.398437v-17.066406h102.398437c4.714844 0 8.535157-3.820312 8.535157-8.53125 0-4.714844-3.820313-8.535156-8.535157-8.535156h-102.398437v-17.066406h136.53125v119.464843h-136.53125zm136.53125-136.53125v17.066406h-136.53125v-17.066406zm-196.265625-238.933594h42.667969l.058593 76.152344-42.726562-40.609375zm-226.132812 128.042969 2.679687-2.558594 146.652344-139.375c10.796875 10.238282 35.3125 33.515625 62.183593 59.058594.078126.074219.160157.144531.238282.230469l59.734375 56.78125c.136719.117187.246093.253906.382812.363281l24.148438 22.949219 2.648437 2.507812h-277.335937c-.074219 0-.136719 0-.210938 0zm29.867187 59.691406h68.265625v51.199219h-68.265625zm0 68.265625h68.265625c9.425781 0 17.066406-7.640625 17.066406-17.066406v-51.199219c0-9.425781-7.640625-17.066406-17.066406-17.066406h-68.265625v-25.601562h238.933594v247.464843h-17.066407v-93.863281c0-14.140625-11.464843-25.601562-25.601562-25.601562h-42.667969c-14.136719 0-25.597656 11.460937-25.597656 25.601562v93.863281h-15.019531c4.25-6.296875 6.511718-13.730469 6.484375-21.332031-.042969-16.324219-10.394531-30.84375-25.8125-36.207031-1.070313-20.324219-17.832031-36.273438-38.1875-36.324219-3.953125.019531-7.875.660156-11.628907 1.894531-7.820312-11.867187-21.09375-18.996093-35.304687-18.960937-2.863281-.003906-5.722656.28125-8.53125.851562zm204.800781 136.53125h-59.734375v-93.863281c0-4.714844 3.820313-8.535156 8.53125-8.535156h42.667969c4.710938 0 8.535156 3.820312 8.535156 8.535156zm-232.578125-36.445312c2.617188-2.664063 5.917969-4.5625 9.539063-5.476563h.0625c.816406-.214844 1.601562-.554687 2.320312-1 .117188-.074218.179688-.203125.289063-.28125.476562-.363281.910156-.773437 1.296875-1.226562.371094-.351563.710937-.738282 1.007812-1.152344.269532-.472656.492188-.96875.664063-1.484375.222656-.492187.398437-1.003906.53125-1.527344.082031-1.105469.066406-2.210937-.050781-3.3125 0-.136719 0-.265625 0-.402343-.15625-.40625-.347657-.796876-.574219-1.167969-.117188-.414063-.269531-.820313-.449219-1.210938-2.585938-4.054687-3.945312-8.769531-3.925781-13.578125-.035157-12.304687 8.707031-22.886718 20.800781-25.167968 12.089844-2.285157 24.089844 4.378906 28.546875 15.851562 1.25 2.945312 1.882813 6.117188 1.851563 9.316406 0 4.5-1.199219 8.917969-3.472657 12.800782-2.355469 4.085937-.957031 9.308593 3.128907 11.664062 4.089843 2.359375 9.3125.957031 11.667968-3.128906 3.746094-6.488282 5.726563-13.84375 5.742188-21.335938-.007813-2.632812-.261719-5.261718-.757813-7.851562 1.640625-.429688 3.328125-.660156 5.023438-.679688 11.78125 0 21.335937 9.550782 21.335937 21.332032.015625.859374-.050781 1.714843-.199218 2.558593v.453125c0 .152344-.117188.273438-.144532.425782.003906.417968.035156.835937.09375 1.246093-.019531.574219.019532 1.144531.121094 1.707031.136719.519532.328125 1.023438.570312 1.503907.195313.507812.4375.996093.726563 1.457031.328125.429688.695313.820312 1.101563 1.179688.367187.398437.777343.757812 1.21875 1.074218.488281.289063 1 .523438 1.535156.707032.367187.203124.75.375 1.144531.523437.203125.035156.40625.054687.613281.066406.09375 0 .164063.078125.257813.085938 10.617187 1.390625 18.554687 10.4375 18.558593 21.144531-.074218 11.75-9.582031 21.257812-21.332031 21.332031h-93.867187c-11.78125 0-21.332032-9.550781-21.332032-21.332031-.019531-5.691406 2.277344-11.144531 6.355469-15.113281zm-14.890625 70.582031v-17.066406h477.867188v17.066406zm0 0"/><path d="m255.316406 414.894531c-.1875-.546875-.445312-1.0625-.765625-1.539062-.316406-.445313-.660156-.871094-1.027343-1.277344-2.734376-2.714844-6.945313-3.257813-10.28125-1.328125-3.332032 1.929688-4.960938 5.851562-3.972657 9.574219.984375 3.722656 4.34375 6.324219 8.195313 6.34375 1.117187-.011719 2.21875-.242188 3.246094-.679688 1.03125-.433593 1.984374-1.039062 2.8125-1.792969 1.558593-1.636718 2.445312-3.800781 2.476562-6.058593-.019531-.574219-.074219-1.144531-.171875-1.707031-.089844-.535157-.265625-1.054688-.511719-1.535157zm0 0"/><path d="m204.800781 324.269531h59.734375c9.425782 0 17.066406-7.640625 17.066406-17.066406v-51.199219c0-9.425781-7.640624-17.066406-17.066406-17.066406h-59.734375c-9.425781 0-17.066406 7.640625-17.066406 17.066406v51.199219c0 9.425781 7.640625 17.066406 17.066406 17.066406zm0-68.265625h59.734375v51.199219h-59.734375zm0 0"/><path d="m494.933594 64.429688v-.425782c-.023438-21.199218-17.203125-38.378906-38.398438-38.402344-5.667968-.011718-11.265625 1.246094-16.386718 3.679688-7.0625-17.738281-24.257813-29.3515625-43.347657-29.27734375-15.3125-.00390625-29.664062 7.46484375-38.449219 20.00781275-8.785156 12.546875-10.898437 28.585937-5.660156 42.976562-14.582031 6.660157-22.539062 22.59375-19.109375 38.253907 3.433594 15.65625 17.320313 26.804687 33.351563 26.761718h110.933594c15.4375.035156 28.96875-10.316406 32.96875-25.226562 4.003906-14.910156-2.523438-30.648438-15.902344-38.347656zm-17.066406 46.507812h-110.933594c-9.128906-.023438-16.613282-7.246094-16.957032-16.367188-.34375-9.121093 6.574219-16.890624 15.675782-17.597656 3.035156-.234375 5.714844-2.066406 7.03125-4.808594 1.320312-2.742187 1.078125-5.976562-.628906-8.496093-7.050782-10.3125-6.921876-23.925781.328124-34.101563 7.246094-10.175781 20.074219-14.75 32.125-11.457031 12.050782 3.292969 20.765626 13.75 21.835938 26.199219.289062 3.347656 2.519531 6.210937 5.695312 7.316406 3.171876 1.105469 6.699219.246094 9.007813-2.195312 3.996094-4.3125 9.609375-6.761719 15.488281-6.761719 11.78125 0 21.332032 9.550781 21.332032 21.335937-.007813 1.355469-.148438 2.710938-.417969 4.042969-.8125 4.21875 1.636719 8.378906 5.714843 9.71875 7.96875 2.582031 12.871094 10.582031 11.546876 18.855469-1.320313 8.269531-8.46875 14.34375-16.84375 14.316406zm0 0"/></svg>