<svg height="432pt" viewBox="0 -12 432 431" width="432pt" xmlns="http://www.w3.org/2000/svg"><path d="m320 136.5h-240c-4.414062 0-8 3.582031-8 8v16c0 4.414062 3.585938 8 8 8h104v228c0 4.414062 3.585938 8 8 8h16c4.414062 0 8-3.585938 8-8v-228h104c4.414062 0 8-3.585938 8-8v-16c0-4.417969-3.585938-8-8-8zm0 0" fill="#c2c2c2"/><path d="m208 408.5h-16c-6.617188 0-12-5.382812-12-12v-224h-100c-6.617188 0-12-5.382812-12-12v-16c0-6.617188 5.382812-12 12-12h240c6.617188 0 12 5.382812 12 12v16c0 6.617188-5.382812 12-12 12h-100v224c0 6.617188-5.382812 12-12 12zm-128-268c-2.199219 0-4 1.792969-4 4v16c0 2.207031 1.800781 4 4 4h104c2.207031 0 4 1.792969 4 4v228c0 2.207031 1.800781 4 4 4h16c2.199219 0 4-1.792969 4-4v-228c0-2.207031 1.792969-4 4-4h104c2.199219 0 4-1.792969 4-4v-16c0-2.207031-1.800781-4-4-4zm0 0" fill="#212a41"/><path d="m344 136.5h-240c-4.414062 0-8 3.582031-8 8v16c0 4.414062 3.585938 8 8 8h104v228c0 4.414062 3.585938 8 8 8h16c4.414062 0 8-3.585938 8-8v-228h104c4.414062 0 8-3.585938 8-8v-16c0-4.417969-3.585938-8-8-8zm0 0" fill="#e0e0e0"/><path d="m232 408.5h-16c-6.617188 0-12-5.382812-12-12v-224h-100c-6.617188 0-12-5.382812-12-12v-16c0-6.617188 5.382812-12 12-12h240c6.617188 0 12 5.382812 12 12v16c0 6.617188-5.382812 12-12 12h-100v224c0 6.617188-5.382812 12-12 12zm-128-268c-2.199219 0-4 1.792969-4 4v16c0 2.207031 1.800781 4 4 4h104c2.207031 0 4 1.792969 4 4v228c0 2.207031 1.800781 4 4 4h16c2.199219 0 4-1.792969 4-4v-228c0-2.207031 1.792969-4 4-4h104c2.199219 0 4-1.792969 4-4v-16c0-2.207031-1.800781-4-4-4zm0 0" fill="#212a41"/><path d="m44 24.5h128v24h-128zm0 0" fill="#0079a8"/><path d="m172 52.5h-128c-2.207031 0-4-1.792969-4-4v-24c0-2.207031 1.792969-4 4-4h128c2.207031 0 4 1.792969 4 4v24c0 2.207031-1.792969 4-4 4zm-124-8h120v-16h-120zm0 0" fill="#212a41"/><path d="m60 36.5c0 13.253906-10.746094 24-24 24s-24-10.746094-24-24 10.746094-24 24-24 24 10.746094 24 24zm0 0" fill="#0079a8"/><path d="m36 64.5c-15.441406 0-28-12.558594-28-28s12.558594-28 28-28 28 12.558594 28 28-12.558594 28-28 28zm0-48c-11.03125 0-20 8.976562-20 20s8.96875 20 20 20 20-8.976562 20-20-8.96875-20-20-20zm0 0" fill="#212a41"/><path d="m204 36.5c0 13.253906-10.746094 24-24 24s-24-10.746094-24-24 10.746094-24 24-24 24 10.746094 24 24zm0 0" fill="#0079a8"/><path d="m180 64.5c-15.441406 0-28-12.558594-28-28s12.558594-28 28-28 28 12.558594 28 28-12.558594 28-28 28zm0-48c-11.03125 0-20 8.976562-20 20s8.96875 20 20 20 20-8.976562 20-20-8.96875-20-20-20zm0 0" fill="#212a41"/><path d="m428 36.5-80-32v20h-112v24h112v20zm0 0" fill="#d32e5e"/><path d="m348 72.5c-.792969 0-1.566406-.230469-2.238281-.6875-1.105469-.746094-1.761719-1.984375-1.761719-3.3125v-16h-108c-2.207031 0-4-1.792969-4-4v-24c0-2.207031 1.792969-4 4-4h108v-16c0-1.328125.65625-2.566406 1.761719-3.3125 1.09375-.742188 2.496093-.894531 3.726562-.398438l80 32c1.519531.605469 2.511719 2.070313 2.511719 3.710938s-.992188 3.105469-2.511719 3.710938l-80 32c-.480469.191406-.992187.289062-1.488281.289062zm-108-28h108c2.207031 0 4 1.792969 4 4v14.097656l65.222656-26.097656-65.222656-26.097656v14.097656c0 2.207031-1.792969 4-4 4h-108zm0 0" fill="#212a41"/><path d="m363.617188 49.019531c-1.585938 0-3.089844-.953125-3.714844-2.511719-.824219-2.046874.167968-4.375 2.226562-5.199218l21.304688-8.519532c2.046875-.824218 4.375.175782 5.191406 2.230469.824219 2.046875-.167969 4.375-2.226562 5.199219l-21.300782 8.519531c-.480468.195313-.984375.28125-1.480468.28125zm0 0" fill="#b51040"/><path d="m96 48.5h24v88h-24zm0 0" fill="#e0e0e0"/><path d="m120 140.5h-24c-2.207031 0-4-1.792969-4-4v-88c0-2.207031 1.792969-4 4-4h24c2.207031 0 4 1.792969 4 4v88c0 2.207031-1.792969 4-4 4zm-20-8h16v-80h-16zm0 0" fill="#212a41"/><path d="m304 48.5h24v88h-24zm0 0" fill="#e0e0e0"/><path d="m328 140.5h-24c-2.207031 0-4-1.792969-4-4v-88c0-2.207031 1.792969-4 4-4h24c2.207031 0 4 1.792969 4 4v88c0 2.207031-1.792969 4-4 4zm-20-8h16v-80h-16zm0 0" fill="#212a41"/><path d="m208 136.5h-16c-4.414062 0-8-3.585938-8-8v-32c0-4.417969 3.585938-8 8-8h16c4.414062 0 8 3.582031 8 8v32c0 4.414062-3.585938 8-8 8zm0 0" fill="#db8e11"/><path d="m208 140.5h-16c-6.617188 0-12-5.382812-12-12v-32c0-6.617188 5.382812-12 12-12h16c6.617188 0 12 5.382812 12 12v32c0 6.617188-5.382812 12-12 12zm-16-48c-2.199219 0-4 1.792969-4 4v32c0 2.207031 1.800781 4 4 4h16c2.199219 0 4-1.792969 4-4v-32c0-2.207031-1.800781-4-4-4zm0 0" fill="#212a41"/><path d="m232 136.5h-16c-4.414062 0-8-3.585938-8-8v-32c0-4.417969 3.585938-8 8-8h16c4.414062 0 8 3.582031 8 8v32c0 4.414062-3.585938 8-8 8zm0 0" fill="#f9ac2f"/><path d="m232 140.5h-16c-6.617188 0-12-5.382812-12-12v-32c0-6.617188 5.382812-12 12-12h16c6.617188 0 12 5.382812 12 12v32c0 6.617188-5.382812 12-12 12zm-16-48c-2.199219 0-4 1.792969-4 4v32c0 2.207031 1.800781 4 4 4h16c2.199219 0 4-1.792969 4-4v-32c0-2.207031-1.800781-4-4-4zm0 0" fill="#212a41"/><path d="m75.664062 292.5c0-13.257812-10.742187-24-24-24-13.257812 0-24 10.742188-24 24h-7.664062c-8.839844 0-16 7.160156-16 16s7.160156 16 16 16h64c8.839844 0 16-7.160156 16-16s-7.160156-16-16-16zm0 0" fill="#99a2b9"/><path d="m84 328.5h-64c-11.03125 0-20-8.976562-20-20s8.96875-20 20-20h3.945312c1.949219-13.550781 13.640626-24 27.71875-24 14.078126 0 25.769532 10.449219 27.71875 24h4.617188c11.03125 0 20 8.976562 20 20s-8.96875 20-20 20zm-64-32c-6.617188 0-12 5.382812-12 12s5.382812 12 12 12h64c6.617188 0 12-5.382812 12-12s-5.382812-12-12-12h-8.335938c-2.207031 0-4-1.792969-4-4 0-11.023438-8.96875-20-20-20s-20 8.976562-20 20c0 2.207031-1.792968 4-4 4zm59.664062-4h.078126zm0 0" fill="#212a41"/><path d="m115.664062 292.5c0-13.257812-10.742187-24-24-24-13.257812 0-24 10.742188-24 24h-7.664062c-8.839844 0-16 7.160156-16 16s7.160156 16 16 16h64c8.839844 0 16-7.160156 16-16s-7.160156-16-16-16zm0 0" fill="#b7c0d7"/><path d="m124 328.5h-64c-11.03125 0-20-8.976562-20-20s8.96875-20 20-20h3.945312c1.949219-13.550781 13.640626-24 27.71875-24 14.078126 0 25.769532 10.449219 27.71875 24h4.617188c11.03125 0 20 8.976562 20 20s-8.96875 20-20 20zm-64-32c-6.617188 0-12 5.382812-12 12s5.382812 12 12 12h64c6.617188 0 12-5.382812 12-12s-5.382812-12-12-12h-8.335938c-2.207031 0-4-1.792969-4-4 0-11.023438-8.96875-20-20-20s-20 8.976562-20 20c0 2.207031-1.792968 4-4 4zm59.664062-4h.078126zm0 0" fill="#212a41"/><path d="m355.664062 292.5c0-13.257812-10.742187-24-24-24-13.257812 0-24 10.742188-24 24h-7.664062c-8.839844 0-16 7.160156-16 16s7.160156 16 16 16h64c8.839844 0 16-7.160156 16-16s-7.160156-16-16-16zm0 0" fill="#99a2b9"/><path d="m364 328.5h-64c-11.03125 0-20-8.976562-20-20s8.96875-20 20-20h3.945312c1.949219-13.550781 13.640626-24 27.71875-24 14.078126 0 25.769532 10.449219 27.71875 24h4.617188c11.03125 0 20 8.976562 20 20s-8.96875 20-20 20zm-64-32c-6.617188 0-12 5.382812-12 12s5.382812 12 12 12h64c6.617188 0 12-5.382812 12-12s-5.382812-12-12-12h-8.335938c-2.207031 0-4-1.792969-4-4 0-11.023438-8.96875-20-20-20s-20 8.976562-20 20c0 2.207031-1.792968 4-4 4zm59.664062-4h.078126zm0 0" fill="#212a41"/><path d="m395.664062 292.5c0-13.257812-10.742187-24-24-24-13.257812 0-24 10.742188-24 24h-7.664062c-8.839844 0-16 7.160156-16 16s7.160156 16 16 16h64c8.839844 0 16-7.160156 16-16s-7.160156-16-16-16zm0 0" fill="#b7c0d7"/><path d="m404 328.5h-64c-11.03125 0-20-8.976562-20-20s8.96875-20 20-20h3.945312c1.949219-13.550781 13.640626-24 27.71875-24 14.078126 0 25.769532 10.449219 27.71875 24h4.617188c11.03125 0 20 8.976562 20 20s-8.96875 20-20 20zm-64-32c-6.617188 0-12 5.382812-12 12s5.382812 12 12 12h64c6.617188 0 12-5.382812 12-12s-5.382812-12-12-12h-8.335938c-2.207031 0-4-1.792969-4-4 0-11.023438-8.96875-20-20-20s-20 8.976562-20 20c0 2.207031-1.792968 4-4 4zm59.664062-4h.078126zm0 0" fill="#212a41"/><path d="m224 392.5c-2.207031 0-4-1.792969-4-4v-220c0-2.207031 1.792969-4 4-4s4 1.792969 4 4v220c0 2.207031-1.792969 4-4 4zm0 0" fill="#c2c2c2"/></svg>