<svg height="463pt" viewBox="-5 0 463 463" width="463pt" xmlns="http://www.w3.org/2000/svg"><path d="m302.265625 88.800781h-26.367187l-.628907-37.285156c-.054687-3.273437-2.722656-5.902344-6-5.902344h-.097656c-3.316406.054688-5.957031 2.789063-5.902344 6.101563l.625 37.082031h-27.628906c-3.3125 0-6 2.6875-6 6v33c0 3.3125 2.6875 6 6 6h26.640625l.359375 196.199219c.007813 3.308594 2.691406 5.988281 6 5.988281h.011719c3.3125-.003906 5.996094-2.695313 5.988281-6.007813l-.359375-196.175781h27.359375c3.316406 0 6-2.683593 6-6v-33c.003906-3.3125-2.683594-6-6-6zm-6 33h-27.164063c-.074218 0-.140624-.011719-.210937-.011719-.074219 0-.136719.007813-.207031.011719h-26.417969v-21h54zm0 0"/><path d="m215.734375 157.800781h-26.308594l-.691406-106.222656c-.023437-3.300781-2.703125-5.960937-6-5.960937h-.042969c-3.3125.019531-5.980468 2.722656-5.960937 6.039062l.691406 106.144531h-27.6875c-3.316406 0-6 2.683594-6 6v33c0 3.3125 2.683594 6 6 6h26.644531l.355469 127.199219c.007813 3.308594 2.691406 5.984375 6 5.984375h.015625c3.3125-.007813 5.992188-2.703125 5.984375-6.015625l-.355469-127.167969h27.355469c3.3125 0 6-2.6875 6-6v-33c0-3.316406-2.6875-6-6-6zm-6 33h-27.160156c-.070313 0-.136719-.011719-.210938-.011719h-.015625c-.070312 0-.132812.007813-.199218.011719h-26.414063v-21h54zm0 0"/><path d="m129.199219 234.800781h-26.292969l-.707031-183.207031c-.011719-3.304688-2.695313-5.976562-6-5.976562h-.023438c-3.3125.011718-5.988281 2.707031-5.976562 6.023437l.707031 183.160156h-27.707031c-3.3125 0-6 2.683594-6 6v33c0 3.3125 2.6875 6 6 6h26.667969l.332031 50.222657c.023437 3.296874 2.703125 5.960937 6 5.960937h.039062c3.316407-.023437 5.984375-2.726563 5.960938-6.039063l-.328125-50.144531h27.328125c3.316406 0 6-2.6875 6-6v-33c0-3.316406-2.683594-6-6-6zm-6 33h-27.152344c-.074219 0-.144531-.011719-.214844-.011719h-.042969c-.0625 0-.125.007813-.1875.011719h-26.402343v-21h54zm0 0"/><path d="m388.800781 249.800781h-26.292969l-.707031-198.199219c-.011719-3.308593-2.695312-5.980468-6-5.980468h-.023437c-3.3125.011718-5.992188 2.707031-5.976563 6.023437l.707031 198.160157h-27.707031c-3.316406 0-6 2.6875-6 6v33c0 3.3125 2.683594 6 6 6h26.683594l.316406 35.238281c.027344 3.292969 2.707031 5.945312 6 5.945312h.054688c3.3125-.027343 5.976562-2.738281 5.945312-6.050781l-.316406-35.132812h27.316406c3.3125 0 6-2.683594 6-6v-33c0-1.589844-.628906-3.117188-1.757812-4.246094-1.125-1.125-2.652344-1.757813-4.242188-1.757813zm-6 33h-27.15625c-.070312 0-.140625-.011719-.214843-.011719h-.054688c-.058594 0-.113281.007813-.171875.011719h-26.402344v-21h54zm0 0"/><path d="m426 0h-400c-14.351562.015625-25.984375 11.648438-26 26v411c.015625 14.351562 11.648438 25.984375 26 26h400c14.351562-.015625 25.984375-11.648438 26-26v-411c-.015625-14.351562-11.648438-25.984375-26-26zm14 437c-.007812 7.730469-6.269531 13.992188-14 14h-400c-7.730469-.007812-13.992188-6.269531-14-14v-54.300781h428zm0-66.300781h-428v-344.699219c.007812-7.730469 6.269531-13.992188 14-14h400c7.730469.007812 13.992188 6.269531 14 14zm0 0"/><path d="m65.949219 439.351562c12.425781 0 22.5-10.074218 22.5-22.5 0-12.429687-10.074219-22.5-22.5-22.5s-22.5 10.070313-22.5 22.5c.015625 12.417969 10.082031 22.484376 22.5 22.5zm0-33c5.800781 0 10.5 4.699219 10.5 10.5 0 5.796876-4.699219 10.5-10.5 10.5-5.796875 0-10.5-4.703124-10.5-10.5.007812-5.796874 4.703125-10.496093 10.5-10.5zm0 0"/><path d="m145.976562 439.898438c12.425782 0 22.5-10.070313 22.5-22.5 0-12.425782-10.074218-22.5-22.5-22.5-12.429687 0-22.5 10.074218-22.5 22.5.011719 12.421874 10.078126 22.488281 22.5 22.5zm0-33c5.796876 0 10.5 4.703124 10.5 10.5 0 5.800781-4.703124 10.5-10.5 10.5-5.800781 0-10.5-4.699219-10.5-10.5.003907-5.792969 4.703126-10.492188 10.5-10.5zm0 0"/><path d="m226 439.898438c12.425781 0 22.5-10.070313 22.5-22.5 0-12.425782-10.074219-22.5-22.5-22.5s-22.5 10.074218-22.5 22.5c.015625 12.421874 10.078125 22.488281 22.5 22.5zm0-33c5.800781 0 10.5 4.703124 10.5 10.5 0 5.800781-4.699219 10.5-10.5 10.5s-10.5-4.699219-10.5-10.5c.007812-5.792969 4.703125-10.492188 10.5-10.5zm0 0"/><path d="m306.023438 439.898438c12.429687 0 22.5-10.070313 22.5-22.5 0-12.425782-10.070313-22.5-22.5-22.5-12.425782 0-22.5 10.074218-22.5 22.5.015624 12.421874 10.082031 22.488281 22.5 22.5zm0-33c5.800781 0 10.5 4.703124 10.5 10.5 0 5.800781-4.699219 10.5-10.5 10.5-5.796876 0-10.5-4.699219-10.5-10.5.007812-5.792969 4.707031-10.492188 10.5-10.5zm0 0"/><path d="m386.050781 439.898438c12.425781 0 22.5-10.070313 22.5-22.5 0-12.425782-10.074219-22.5-22.5-22.5s-22.5 10.074218-22.5 22.5c.011719 12.421874 10.078125 22.488281 22.5 22.5zm0-33c5.796875 0 10.5 4.703124 10.5 10.5 0 5.800781-4.703125 10.5-10.5 10.5-5.800781 0-10.5-4.699219-10.5-10.5.003907-5.792969 4.703125-10.492188 10.5-10.5zm0 0"/></svg>