<svg id="Layer_1" height="512" viewBox="0 0 128 128" width="512" xmlns="http://www.w3.org/2000/svg" data-name="Layer 1"><path d="m121.794 33.008h-37.694a1.75 1.75 0 0 0 -1.75 1.75v7.266h-4.87v-20.107a10.1 10.1 0 0 0 -8.967-10.017v-2.152a4.513 4.513 0 1 0 -9.025 0v2.152a10.1 10.1 0 0 0 -8.968 10.017v20.106h-4.866v-7.265a1.75 1.75 0 0 0 -1.75-1.75h-37.698a1.75 1.75 0 0 0 -1.75 1.75v22.993a1.75 1.75 0 0 0 1.75 1.75h37.694a1.75 1.75 0 0 0 1.75-1.75v-7.266h4.87v3.22a1.749 1.749 0 0 0 1.735 1.749v1.668a1.749 1.749 0 0 0 -1.735 1.748v20.892a1.75 1.75 0 0 0 1.75 1.75h7.218v3.606a20.715 20.715 0 0 0 -16.177 20.182 1.75 1.75 0 0 0 1.75 1.75h14.7v3.366.047a6.886 6.886 0 1 0 8.465 0c0-.016 0-.031 0-.047v-3.366h14.7a1.75 1.75 0 0 0 1.75-1.75 20.715 20.715 0 0 0 -16.163-20.183v-3.605h7.217a1.75 1.75 0 0 0 1.75-1.75v-20.892a1.749 1.749 0 0 0 -1.735-1.749v-1.667a1.749 1.749 0 0 0 1.735-1.749v-3.22h4.865v7.266a1.75 1.75 0 0 0 1.755 1.749h37.7a1.75 1.75 0 0 0 1.75-1.75v-22.992a1.75 1.75 0 0 0 -1.756-1.75zm-1.75 11.5h-4.372v-8h4.372zm-22.508 0h-3.817v-8h3.817zm3.5-8h3.817v8h-3.817zm-3.5 11.492v8h-3.817v-8zm3.5 0h3.817v8h-3.817zm7.317 0h3.818v8h-3.818zm0-3.5v-8h3.818v8zm-22.508-8h4.373v8h-4.372v-8zm-13.6 20.62h-16.49v-1.665h16.49zm1.735-13.347v8.182h-19.96v-28.288h19.96zm-10.993-34.025a1.013 1.013 0 1 1 2.025 0v2.082h-2.025zm-2.38 5.582h6.785a6.6 6.6 0 0 1 6.352 4.837h-19.488a6.6 6.6 0 0 1 6.351-4.837zm-18.453 28.443v.727h-4.373v-8h4.373zm-22.508.727h-3.818v-8h3.818zm3.5-8h3.817v8h-3.817zm-3.5 11.5v8h-3.818v-8zm3.5 0h3.817v8h-3.817zm7.317 0h3.817v8h-3.816zm0-3.5v-8h3.817v8zm-18.136-8v8h-4.371v-8zm-4.371 11.5h4.372v8h-4.372zm34.2 8h-4.375v-8h4.373v8zm3.5-9.016v-1.461h4.864v1.462zm18.344 72.282a3.386 3.386 0 1 1 3.386-3.387 3.39 3.39 0 0 1 -3.386 3.387zm.737-10.232a6.667 6.667 0 0 0 -1.475 0v-1.988h1.475zm16.363-5.488h-34.2a17.19 17.19 0 0 1 34.2 0zm-16.087-18.94h-2.026v-3.094h2.025zm8.968-6.595h-19.961v-17.391h19.96zm3.5-31.026v-1.462h4.865v1.462zm8.365 1.75v-.735h4.373v8h-4.373zm29.826 7.265v-8h4.372v8z"/><path d="m64 45.529a7.718 7.718 0 1 0 -7.718-7.718 7.726 7.726 0 0 0 7.718 7.718zm0-11.937a4.218 4.218 0 1 1 -4.218 4.219 4.223 4.223 0 0 1 4.218-4.218z"/></svg>