<svg height="512pt" viewBox="-23 0 512 512" width="512pt" xmlns="http://www.w3.org/2000/svg"><path d="m362.667969 469.332031c-41.175781 0-74.667969-33.492187-74.667969-74.664062 0-41.175781 33.492188-74.667969 74.667969-74.667969 41.171875 0 74.664062 33.492188 74.664062 74.667969 0 41.171875-33.492187 74.664062-74.664062 74.664062zm0-117.332031c-23.53125 0-42.667969 19.136719-42.667969 42.667969s19.136719 42.664062 42.667969 42.664062 42.664062-19.132812 42.664062-42.664062-19.132812-42.667969-42.664062-42.667969zm0 0"/><path d="m362.667969 512c-8.832031 0-16-7.167969-16-16v-42.667969c0-8.832031 7.167969-16 16-16s16 7.167969 16 16v42.667969c0 8.832031-7.167969 16-16 16zm0 0"/><path d="m362.667969 352c-8.832031 0-16-7.167969-16-16v-42.667969c0-8.832031 7.167969-16 16-16s16 7.167969 16 16v42.667969c0 8.832031-7.167969 16-16 16zm0 0"/><path d="m413.441406 381.441406c-5.527344 0-10.902344-2.859375-13.867187-8-4.417969-7.660156-1.792969-17.429687 5.84375-21.867187l36.90625-21.335938c7.636719-4.414062 17.429687-1.789062 21.867187 5.847657 4.417969 7.65625 1.792969 17.429687-5.84375 21.867187l-36.90625 21.332031c-2.519531 1.472656-5.269531 2.15625-8 2.15625zm0 0"/><path d="m275.007812 461.226562c-5.523437 0-10.902343-2.859374-13.867187-8-4.414063-7.660156-1.792969-17.429687 5.847656-21.867187l36.90625-21.332031c7.636719-4.4375 17.429688-1.792969 21.867188 5.84375 4.414062 7.660156 1.789062 17.429687-5.847657 21.867187l-36.90625 21.332031c-2.539062 1.472657-5.289062 2.15625-8 2.15625zm0 0"/><path d="m311.894531 381.441406c-2.710937 0-5.484375-.683594-8-2.15625l-36.90625-21.332031c-7.640625-4.4375-10.261719-14.210937-5.847656-21.867187 4.4375-7.636719 14.230469-10.261719 21.867187-5.847657l36.90625 21.335938c7.636719 4.4375 10.261719 14.207031 5.847657 21.867187-2.988281 5.140625-8.363281 8-13.867188 8zm0 0"/><path d="m450.324219 461.226562c-2.707031 0-5.480469-.683593-8-2.15625l-36.90625-21.332031c-7.636719-4.4375-10.261719-14.207031-5.84375-21.867187 4.4375-7.636719 14.226562-10.261719 21.867187-5.84375l36.90625 21.332031c7.636719 4.4375 10.261719 14.207031 5.84375 21.867187-2.964844 5.140626-8.339844 8-13.867187 8zm0 0"/><path d="m192 213.332031c-58.816406 0-106.667969-47.847656-106.667969-106.664062 0-58.816407 47.851563-106.667969 106.667969-106.667969s106.667969 47.851562 106.667969 106.667969c0 58.816406-47.851563 106.664062-106.667969 106.664062zm0-181.332031c-41.171875 0-74.667969 33.492188-74.667969 74.667969 0 41.171875 33.496094 74.664062 74.667969 74.664062s74.667969-33.492187 74.667969-74.664062c0-41.175781-33.496094-74.667969-74.667969-74.667969zm0 0"/><path d="m213.332031 448h-197.332031c-8.832031 0-16-7.167969-16-16v-74.667969c0-55.871093 45.460938-101.332031 101.332031-101.332031h181.335938c8.832031 0 16 7.167969 16 16s-7.167969 16-16 16h-181.335938c-38.226562 0-69.332031 31.105469-69.332031 69.332031v58.667969h181.332031c8.832031 0 16 7.167969 16 16s-7.167969 16-16 16zm0 0"/></svg>