<svg id="Capa_1" enable-background="new 0 0 508.618 508.618" height="512" viewBox="0 0 508.618 508.618" width="512" xmlns="http://www.w3.org/2000/svg"><path d="m291.998 199.098c13.009 0 23.593-10.584 23.593-23.593 0-3.057-.591-5.978-1.654-8.661h48.762c4.142 0 7.5-3.358 7.5-7.5s-3.358-7.5-7.5-7.5l-109.143.068c-8.971-17.39-26.027-29.125-45.607-31.047-16.198-1.59-31.849 3.45-43.846 13.941-7.646-4.451-16.267-6.778-25.268-6.778-1.041 0-2.084.032-3.126.097-4.537-12.526-12.429-23.185-22.48-31.086 4.479-1.852 9.263-2.856 14.172-2.937 7.675-.131 15.169 1.972 21.645 6.067 1.728 1.092 3.826 1.431 5.811.941 1.984-.491 3.682-1.771 4.701-3.543 8.953-15.581 25.651-25.259 43.579-25.259 3.361 0 6.731.336 10.015 1 3.647.738 7.29-1.315 8.546-4.821 11.077-30.913 40.586-51.682 73.43-51.682 19.606 0 38.345 7.305 52.762 20.568 14.333 13.185 23.174 31.085 24.896 50.404.183 2.057 1.207 3.947 2.829 5.225s3.699 1.832 5.742 1.528c1.935-.287 3.895-.432 5.828-.432 17.813 0 33.446 12.009 38.018 29.203.874 3.286 3.848 5.573 7.248 5.573h33.124c6.333 0 11.485 5.152 11.485 11.485s-5.152 11.486-11.485 11.486h-72.874c-4.142 0-7.5 3.358-7.5 7.5s3.358 7.5 7.5 7.5h72.874c14.604 0 26.485-11.881 26.485-26.486 0-14.604-11.881-26.485-26.485-26.485h-27.685c-8.04-20.863-28.341-34.907-51.114-34.775-3.438-20.21-13.476-38.732-28.73-52.765-17.194-15.818-39.539-24.529-62.918-24.529-37.078 0-70.592 22.202-85.261 55.849-2.235-.23-4.484-.346-6.729-.346-20.831 0-40.381 10.057-52.59 26.659-7.304-3.328-15.259-4.992-23.392-4.862-10.318.169-20.226 3.261-28.846 8.956-8.995-3.972-18.94-6.089-29.309-5.945-36.413.486-66.667 29.299-68.875 65.598-.051.838-.087 1.673-.108 2.501-.332 12.787 4.452 24.925 13.47 34.181 9.105 9.344 21.813 14.704 34.866 14.704h243.644zm-276.987-48.497c.017-.658.046-1.319.086-1.979 1.734-28.502 25.499-51.127 54.103-51.508.251-.003.499-.005.75-.005 25.092 0 46.909 16.82 53.208 41.131.997 3.849 4.823 6.251 8.723 5.475 2.29-.455 4.63-.686 6.956-.686 7.876 0 15.337 2.536 21.576 7.333 3.082 2.371 7.467 1.991 10.097-.875 9.215-10.042 22.321-15.034 35.975-13.693 15.737 1.545 29.281 11.687 35.346 26.466 1.155 2.815 3.896 4.653 6.938 4.653h43.23c4.738 0 8.593 3.855 8.593 8.593s-3.855 8.593-8.593 8.593h-243.647c-9.032 0-17.824-3.708-24.122-10.171-6.171-6.334-9.445-14.617-9.219-23.327z"/><path d="m428.562 358.205-11.5 11.5c-2.929 2.929-2.929 7.678 0 10.606 1.464 1.464 3.384 2.197 5.303 2.197s3.839-.732 5.303-2.197l11.5-11.5c2.929-2.929 2.929-7.678 0-10.606-2.928-2.929-7.677-2.929-10.606 0z"/><path d="m387.127 399.64-11.5 11.5c-2.929 2.929-2.929 7.678 0 10.606 1.464 1.464 3.384 2.197 5.303 2.197s3.839-.732 5.303-2.197l11.5-11.5c2.929-2.929 2.929-7.678 0-10.606s-7.678-2.928-10.606 0z"/><path d="m345.691 441.076-11.5 11.5c-2.929 2.929-2.929 7.678 0 10.606 1.464 1.464 3.384 2.197 5.303 2.197s3.839-.732 5.303-2.197l11.5-11.5c2.929-2.929 2.929-7.678 0-10.606-2.928-2.929-7.677-2.929-10.606 0z"/><path d="m304.256 482.511-11.5 11.5c-2.929 2.929-2.929 7.678 0 10.606 1.464 1.464 3.384 2.197 5.303 2.197s3.839-.732 5.303-2.197l11.5-11.5c2.929-2.929 2.929-7.678 0-10.606-2.928-2.929-7.677-2.929-10.606 0z"/><path d="m377.016 358.205c-2.929-2.929-7.678-2.929-10.606 0l-11.5 11.5c-2.929 2.929-2.929 7.678 0 10.606 1.464 1.464 3.384 2.197 5.303 2.197s3.839-.732 5.303-2.197l11.5-11.5c2.929-2.928 2.929-7.677 0-10.606z"/><path d="m335.581 399.64c-2.929-2.929-7.678-2.929-10.606 0l-11.5 11.5c-2.929 2.929-2.929 7.678 0 10.606 1.464 1.464 3.384 2.197 5.303 2.197s3.839-.732 5.303-2.197l11.5-11.5c2.929-2.928 2.929-7.677 0-10.606z"/><path d="m294.146 441.076c-2.929-2.929-7.678-2.929-10.606 0l-11.5 11.5c-2.929 2.929-2.929 7.678 0 10.606 1.464 1.464 3.384 2.197 5.303 2.197s3.839-.732 5.303-2.197l11.5-11.5c2.929-2.929 2.929-7.678 0-10.606z"/><path d="m242.104 482.511-11.5 11.5c-2.929 2.929-2.929 7.678 0 10.606 1.464 1.464 3.384 2.197 5.303 2.197s3.839-.732 5.303-2.197l11.5-11.5c2.929-2.929 2.929-7.678 0-10.606-2.929-2.929-7.678-2.929-10.606 0z"/><path d="m303.363 380.311 11.5-11.5c2.929-2.929 2.929-7.678 0-10.606-2.929-2.929-7.678-2.929-10.606 0l-11.5 11.5c-2.929 2.929-2.929 7.678 0 10.606 1.464 1.464 3.384 2.197 5.303 2.197s3.839-.732 5.303-2.197z"/><path d="m273.428 399.64c-2.929-2.929-7.678-2.929-10.606 0l-11.5 11.5c-2.929 2.929-2.929 7.678 0 10.606 1.464 1.464 3.384 2.197 5.303 2.197s3.839-.732 5.303-2.197l11.5-11.5c2.929-2.928 2.929-7.677 0-10.606z"/><path d="m231.993 441.076c-2.929-2.929-7.678-2.929-10.606 0l-11.5 11.5c-2.929 2.929-2.929 7.678 0 10.606 1.464 1.464 3.384 2.197 5.303 2.197s3.839-.732 5.303-2.197l11.5-11.5c2.929-2.929 2.929-7.678 0-10.606z"/><path d="m179.951 482.511-11.5 11.5c-2.929 2.929-2.929 7.678 0 10.606 1.464 1.464 3.384 2.197 5.303 2.197s3.839-.732 5.303-2.197l11.5-11.5c2.929-2.929 2.929-7.678 0-10.606-2.928-2.929-7.677-2.929-10.606 0z"/><path d="m241.21 380.311 11.5-11.5c2.929-2.929 2.929-7.678 0-10.606-2.929-2.929-7.678-2.929-10.606 0l-11.5 11.5c-2.929 2.929-2.929 7.678 0 10.606 1.464 1.464 3.384 2.197 5.303 2.197s3.839-.732 5.303-2.197z"/><path d="m211.275 399.64c-2.929-2.929-7.678-2.929-10.606 0l-11.5 11.5c-2.929 2.929-2.929 7.678 0 10.606 1.464 1.464 3.384 2.197 5.303 2.197s3.839-.732 5.303-2.197l11.5-11.5c2.929-2.928 2.929-7.677 0-10.606z"/><path d="m169.84 441.076c-2.929-2.929-7.678-2.929-10.606 0l-11.5 11.5c-2.929 2.929-2.929 7.678 0 10.606 1.464 1.464 3.384 2.197 5.303 2.197s3.839-.732 5.303-2.197l11.5-11.5c2.929-2.929 2.929-7.678 0-10.606z"/><path d="m117.798 482.511-11.5 11.5c-2.929 2.929-2.929 7.678 0 10.606 1.464 1.464 3.384 2.197 5.303 2.197s3.839-.732 5.303-2.197l11.5-11.5c2.929-2.929 2.929-7.678 0-10.606-2.928-2.929-7.677-2.929-10.606 0z"/><path d="m134.826 216.347-11.5 11.5c-2.929 2.929-2.929 7.678 0 10.606 1.464 1.464 3.384 2.197 5.303 2.197s3.839-.732 5.303-2.197l11.5-11.5c2.929-2.929 2.929-7.678 0-10.606-2.928-2.928-7.677-2.928-10.606 0z"/><path d="m103.998 257.783c-2.929-2.929-7.678-2.929-10.606 0l-11.5 11.5c-2.929 2.929-2.929 7.678 0 10.606 1.464 1.464 3.384 2.197 5.303 2.197s3.839-.732 5.303-2.197l11.5-11.5c2.929-2.929 2.929-7.678 0-10.606z"/><path d="m51.956 299.218-11.5 11.5c-2.929 2.929-2.929 7.678 0 10.606 1.464 1.464 3.384 2.197 5.303 2.197s3.839-.732 5.303-2.197l11.5-11.5c2.929-2.929 2.929-7.678 0-10.606-2.928-2.929-7.677-2.929-10.606 0z"/><path d="m80.53 216.347c-2.929-2.929-7.678-2.929-10.606 0l-11.5 11.5c-2.929 2.929-2.929 7.678 0 10.606 1.464 1.464 3.384 2.197 5.303 2.197s3.839-.732 5.303-2.197l11.5-11.5c2.93-2.928 2.93-7.677 0-10.606z"/><path d="m39.095 257.783c-2.929-2.929-7.678-2.929-10.606 0l-11.5 11.5c-2.929 2.929-2.929 7.678 0 10.606 1.464 1.464 3.384 2.197 5.303 2.197s3.839-.732 5.303-2.197l11.5-11.5c2.929-2.929 2.929-7.678 0-10.606z"/><path d="m508.569 285.404c-1.664-45.944-38.935-83.489-84.851-85.476-18.445-.8-36.357 4.009-51.794 13.902-12.553 8.044-22.765 18.954-29.897 31.861-10.188-5.522-21.546-8.407-33.294-8.407-28.404 0-53.838 17.273-64.644 42.948-5.755-2.223-11.899-3.376-18.139-3.376-14.893 0-29.027 6.658-38.551 17.987h-40.564c-11.828 0-21.451 9.623-21.451 21.451s9.623 21.451 21.451 21.451h165.855c4.142 0 7.5-3.358 7.5-7.5s-3.358-7.5-7.5-7.5h-165.854c-3.557 0-6.451-2.894-6.451-6.451s2.894-6.451 6.451-6.451h44.232c2.423 0 4.697-1.171 6.104-3.143 6.634-9.295 17.393-14.844 28.778-14.844 6.549 0 12.945 1.808 18.498 5.228 2.008 1.236 4.48 1.457 6.677.594 2.195-.863 3.856-2.709 4.485-4.982 6.575-23.793 28.42-40.411 53.123-40.411 11.548 0 22.614 3.547 32.002 10.257 1.843 1.317 4.183 1.73 6.369 1.124 2.184-.607 3.976-2.169 4.876-4.25 12.267-28.371 40.174-45.855 71.09-44.501 38.155 1.65 69.126 32.852 70.509 71.036.012.314.021.627.028.938.225 9.45-3.307 18.397-9.944 25.195-6.714 6.876-15.705 10.663-25.315 10.663h-115.657c-4.142 0-7.5 3.358-7.5 7.5s3.358 7.5 7.5 7.5h115.657c13.685 0 26.487-5.392 36.047-15.183 9.484-9.713 14.53-22.509 14.208-36.034-.009-.377-.02-.754-.034-1.126z"/></svg>